<svg width="125" height="40" viewBox="0 0 125 40" fill="none" xmlns="http://www.w3.org/2000/svg">
<g clip-path="url(#clip0)">
<path d="M27.3361 28.285C27.6741 27.736 27.4981 27.018 26.9491 26.68C22.0111 23.662 15.8891 22.96 8.75205 24.592C8.12305 24.735 7.73105 25.361 7.87305 25.99C8.01705 26.618 8.64405 27.013 9.27205 26.868C15.7931 25.379 21.3321 25.986 25.7311 28.675C26.2811 29.011 27.0001 28.838 27.3361 28.285Z" fill="white"/>
<path d="M32.2268 17.26C32.7198 16.429 32.4458 15.353 31.6148 14.859C24.6628 10.732 13.6598 10.343 7.04278 12.353C6.11678 12.634 5.59578 13.613 5.87478 14.539C6.15478 15.465 7.13478 15.987 8.05978 15.707C13.8268 13.957 23.7868 14.287 29.8268 17.873C30.6568 18.367 31.7348 18.093 32.2268 17.26Z" fill="white"/>
<path d="M29.156 21.178C23.372 17.624 14.91 16.624 8.10696 18.689C7.33496 18.924 6.89896 19.738 7.12996 20.511C7.36396 21.281 8.17996 21.717 8.95196 21.484C14.908 19.676 22.594 20.573 27.628 23.667C28.315 24.089 29.063 23.874 29.644 23.186V23.187C30.225 22.499 29.843 21.6 29.156 21.178Z" fill="white"/>
<path d="M18.604 1.26599C8.14497 1.26499 -0.0610352 9.65299 -0.0610352 19.999C-0.0610352 30.347 8.36197 38.735 18.709 38.735C29.057 38.735 37.391 30.348 37.391 19.999C37.391 9.65399 29.063 1.26599 18.604 1.26599ZM9.27197 26.868C8.64396 27.013 8.01696 26.619 7.87296 25.99C7.73096 25.362 8.12296 24.735 8.75196 24.592C15.889 22.96 22.01 23.662 26.949 26.68C27.499 27.018 27.675 27.736 27.336 28.286L27.337 28.285C27.001 28.837 26.281 29.01 25.732 28.674C21.332 25.985 15.793 25.379 9.27197 26.868ZM29.644 23.186C29.063 23.873 28.314 24.088 27.627 23.666C22.593 20.572 14.911 19.675 8.95496 21.483C8.18296 21.716 7.36397 21.281 7.12996 20.51C6.89796 19.737 7.33196 18.923 8.10396 18.688C14.908 16.624 23.373 17.623 29.157 21.177C29.843 21.6 30.225 22.499 29.644 23.186ZM29.827 17.873C23.788 14.287 13.827 13.957 8.05997 15.707C7.13496 15.987 6.15496 15.465 5.87496 14.539C5.59496 13.613 6.11696 12.634 7.04296 12.353C13.66 10.343 24.663 10.732 31.615 14.859C32.447 15.353 32.72 16.429 32.227 17.26C31.735 18.093 30.657 18.367 29.827 17.873Z" fill="#24CF5F"/>
<path d="M51.1009 18.561C47.8679 17.789 47.2909 17.248 47.2909 16.11C47.2909 15.035 48.3039 14.312 49.8089 14.312C51.2669 14.312 52.7129 14.862 54.2299 15.992C54.2759 16.026 54.3339 16.04 54.3899 16.031C54.4469 16.022 54.4949 15.991 54.5299 15.944L56.1089 13.718C56.1729 13.626 56.1569 13.499 56.0689 13.43C54.2639 11.982 52.2319 11.277 49.8569 11.277C46.3639 11.277 43.9239 13.374 43.9239 16.372C43.9239 19.588 46.0289 20.727 49.6659 21.606C52.7619 22.319 53.2829 22.917 53.2829 23.984C53.2829 25.167 52.2259 25.903 50.5269 25.903C48.6379 25.903 47.0989 25.267 45.3769 23.775C45.3339 23.738 45.2759 23.721 45.2209 23.724C45.1649 23.729 45.1119 23.755 45.0759 23.799L43.3059 25.907C43.2319 25.994 43.2419 26.125 43.3259 26.2C45.3309 27.99 47.7959 28.935 50.4559 28.935C54.2199 28.935 56.6519 26.878 56.6519 23.696C56.6579 21.009 55.0499 19.521 51.1109 18.563L51.1009 18.561Z" fill="#24CF5F"/>
<path d="M65.165 15.37C63.533 15.37 62.195 16.012 61.093 17.33V15.848C61.093 15.731 60.997 15.636 60.88 15.636H57.984C57.867 15.636 57.7729 15.731 57.7729 15.848V32.314C57.7729 32.431 57.867 32.526 57.984 32.526H60.88C60.997 32.526 61.093 32.43 61.093 32.314V27.117C62.196 28.355 63.535 28.96 65.165 28.96C68.196 28.96 71.265 26.626 71.265 22.166C71.27 17.705 68.2 15.37 65.168 15.37H65.165ZM67.896 22.166C67.896 24.437 66.496 26.023 64.492 26.023C62.512 26.023 61.019 24.365 61.019 22.166C61.019 19.967 62.512 18.31 64.492 18.31C66.465 18.309 67.896 19.931 67.896 22.166Z" fill="#24CF5F"/>
<path d="M79.1287 15.37C75.2247 15.37 72.1667 18.376 72.1667 22.214C72.1667 26.01 75.2037 28.985 79.0817 28.985C82.9987 28.985 86.0667 25.989 86.0667 22.166C86.0667 18.355 83.0197 15.371 79.1297 15.371V15.37H79.1287ZM79.1287 26.044C77.0527 26.044 75.4867 24.376 75.4867 22.164C75.4867 19.942 76.9987 18.331 79.0807 18.331C81.1707 18.331 82.7467 19.999 82.7467 22.213C82.7467 24.434 81.2257 26.044 79.1287 26.044Z" fill="#24CF5F"/>
<path d="M94.403 15.6349H91.215V12.3759C91.215 12.2589 91.12 12.1639 91.004 12.1639H88.108C87.99 12.1639 87.895 12.2589 87.895 12.3759V15.6349H86.503C86.386 15.6349 86.292 15.7299 86.292 15.8469V18.3359C86.292 18.4529 86.386 18.5479 86.503 18.5479H87.895V24.9899C87.895 27.5929 89.191 28.9119 91.746 28.9119C92.785 28.9119 93.646 28.6969 94.459 28.2369C94.525 28.1999 94.566 28.1289 94.566 28.0529V25.6829C94.566 25.6099 94.529 25.5399 94.466 25.5019C94.403 25.4619 94.323 25.4599 94.259 25.4919C93.702 25.7729 93.162 25.9019 92.559 25.9019C91.629 25.9019 91.215 25.4799 91.215 24.5349V18.5499H94.403C94.519 18.5499 94.614 18.4549 94.614 18.3379V15.8489C94.619 15.7309 94.525 15.6359 94.406 15.6359L94.403 15.6349Z" fill="#24CF5F"/>
<path d="M105.507 15.648V15.248C105.507 14.071 105.959 13.546 106.972 13.546C107.576 13.546 108.061 13.666 108.604 13.846C108.671 13.867 108.741 13.857 108.795 13.817C108.851 13.777 108.882 13.713 108.882 13.645V11.205C108.882 11.111 108.821 11.029 108.732 11.001C108.159 10.831 107.424 10.655 106.325 10.655C103.65 10.655 102.236 12.161 102.236 15.01V15.623H100.844C100.728 15.623 100.632 15.719 100.632 15.836V18.338C100.632 18.455 100.728 18.55 100.844 18.55H102.236V28.486C102.236 28.603 102.33 28.698 102.447 28.698H105.343C105.46 28.698 105.556 28.603 105.556 28.486V18.55H108.26L112.403 28.483C111.932 29.527 111.471 29.734 110.84 29.734C110.329 29.734 109.791 29.582 109.242 29.282C109.189 29.253 109.129 29.248 109.073 29.266C109.017 29.285 108.971 29.326 108.948 29.38L107.966 31.533C107.919 31.635 107.958 31.754 108.057 31.807C109.081 32.362 110.007 32.599 111.151 32.599C113.289 32.599 114.47 31.603 115.513 28.923L120.538 15.939C120.562 15.873 120.556 15.8 120.515 15.742C120.475 15.684 120.411 15.65 120.342 15.65H117.325C117.235 15.65 117.155 15.707 117.125 15.792L114.036 24.614L110.653 15.785C110.622 15.703 110.541 15.649 110.455 15.649H105.506V15.648H105.507Z" fill="#24CF5F"/>
<path d="M99.0699 15.635H96.1739C96.0569 15.635 95.9609 15.73 95.9609 15.847V28.484C95.9609 28.601 96.0569 28.696 96.1739 28.696H99.0699C99.1859 28.696 99.2819 28.601 99.2819 28.484V15.849C99.2819 15.732 99.1879 15.636 99.0699 15.635Z" fill="#24CF5F"/>
<path d="M97.6368 9.88098C96.4888 9.88098 95.5588 10.81 95.5588 11.958C95.5588 13.106 96.4898 14.036 97.6368 14.036C98.7838 14.036 99.7138 13.106 99.7138 11.958C99.7138 10.81 98.7848 9.88098 97.6368 9.88098Z" fill="#24CF5F"/>
<path d="M123.012 19.698C121.865 19.698 120.974 18.777 120.974 17.659C120.974 16.541 121.878 15.61 123.023 15.61C124.17 15.61 125.061 16.531 125.061 17.648C125.061 18.766 124.157 19.698 123.012 19.698ZM123.023 15.813C121.978 15.813 121.189 16.643 121.189 17.659C121.189 18.675 121.972 19.494 123.012 19.494C124.055 19.494 124.847 18.665 124.847 17.648C124.848 16.632 124.061 15.813 123.023 15.813ZM123.475 17.858L124.051 18.665H123.565L123.045 17.925H122.599V18.665H122.193V16.526H123.146C123.643 16.526 123.971 16.78 123.971 17.208C123.972 17.559 123.769 17.773 123.476 17.858H123.475ZM123.131 16.893H122.599V17.57H123.131C123.396 17.57 123.553 17.44 123.553 17.231C123.552 17.01 123.394 16.893 123.131 16.893Z" fill="#24CF5F"/>
</g>
<defs>
<clipPath id="clip0">
<rect width="125" height="40" fill="white"/>
</clipPath>
</defs>
</svg>
